# xmcd
#
# Track frame offsets:
#	150
#	29399
#	49122
#	67971
#	89579
#	102750
#	128039
#	144198
#	159529
#	180737
#	193167
#	221727
#	240244
#	256371
#
# Disc length: 3760 seconds
#
# Revision: 1
# Processed by: cddbd v1.5.2PL0 Copyright (c) Steve Scherf et al.
# Submitted via: audiograbber 1.83.01
#
DISCID=c00eae0e
DTITLE=Alan Jackson - The Bluegrass Album
DYEAR=2013
DGENRE=Country
TTITLE0=Long Hard Road
TTITLE1=Mary
TTITLE2=Wild And Blue
TTITLE3=Appalachian Mountain Girl
TTITLE4=Ain't Got Trouble Now
TTITLE5=Blue Ridge Mountain Song
TTITLE6=Tie Me Down
TTITLE7=There Is A Time
TTITLE8=Blue Side Of Heaven
TTITLE9=Let's Get To Me And You
TTITLE10=Way Beyond Blue
TTITLE11=Knew All Along
TTITLE12=Blacktop
TTITLE13=Blue Moon Of Kentucky
EXTD=
EXTT0=
EXTT1=
EXTT2=
EXTT3=
EXTT4=
EXTT5=
EXTT6=
EXTT7=
EXTT8=
EXTT9=
EXTT10=
EXTT11=
EXTT12=
EXTT13=
PLAYORDER=
